# xmcd
#
# Track frame offsets:
#	187
#	14272
#	28920
#	46590
#	64402
#	81260
#	97255
#	112882
#	129375
#	143062
#	154675
#
# Disc length: 2263 seconds
#
# Revision: 8
# Processed by: cddbd v1.5.2PL0 Copyright (c) Steve Scherf et al.
# Submitted via: EZCDAudioConverter 6.0.2.1
#
DISCID=8d08d50b
DTITLE=Lorrie Morgan - Leave The Light On
DYEAR=1989
DGENRE=Country
TTITLE0=Train Wreck Of Emotion
TTITLE1=Out Of Your Shoes
TTITLE2=I'll Take The Memories
TTITLE3=Far Side Of The Bed
TTITLE4=Dear Me
TTITLE5=Five Minutes
TTITLE6=He Talks To Me
TTITLE7=It's Too Late (To Love Me Now)
TTITLE8=Gonna Leave The Light On
TTITLE9=Eight Days A Week
TTITLE10=If I Didn't Love You
EXTD=
EXTT0=
EXTT1=
EXTT2=
EXTT3=
EXTT4=
EXTT5=
EXTT6=
EXTT7=
EXTT8=
EXTT9=
EXTT10=
PLAYORDER=
